<svg width="26" height="26" viewBox="0 0 26 26" fill="none" xmlns="http://www.w3.org/2000/svg">
<path d="M8.89 21.47L12.57 25.15L16.26 21.47H21.46V16.26L25.15 12.58L21.46 8.89V3.65H16.21L12.57 0L11.57 1L9.68 2.89L8.89 3.65H3.68V8.89L0 12.58L2.89 15.47L3.68 16.26V21.47H8.89Z" fill="#F9AB00"/>
<path d="M19.84 12.58C19.84 14.0179 19.4136 15.4235 18.6148 16.619C17.816 17.8145 16.6805 18.7464 15.3521 19.2966C14.0237 19.8469 12.5619 19.9908 11.1517 19.7103C9.74146 19.4298 8.44607 18.7374 7.42934 17.7207C6.41261 16.7039 5.72021 15.4086 5.4397 13.9983C5.15918 12.5881 5.30315 11.1263 5.8534 9.7979C6.40365 8.46948 7.33547 7.33406 8.53101 6.53522C9.72656 5.73638 11.1321 5.31 12.57 5.31C13.5234 5.30869 14.4677 5.49518 15.3491 5.85881C16.2304 6.22245 17.0315 6.75611 17.7065 7.42934C18.3816 8.10256 18.9175 8.90216 19.2835 9.78248C19.6496 10.6628 19.8387 11.6066 19.84 12.56V12.58Z" fill="#E37400"/>
<path d="M11.2348 15.5764L13.0269 8.93395L14.0117 9.19965L12.2196 15.8421L11.2348 15.5764Z" fill="white"/>
<path d="M10.06 10.04L10.82 10.72L9.32 12.4L10.82 14.07L10.06 14.75L7.95 12.39L10.06 10.04ZM15.09 10.03L17.21 12.38L15.1 14.73L14.34 14.05L15.84 12.38L14.34 10.71L15.09 10.03Z" fill="white"/>
</svg>
