<svg width="193" height="44" viewBox="0 0 193 44" fill="none" xmlns="http://www.w3.org/2000/svg">
<path fill-rule="evenodd" clip-rule="evenodd" d="M57.0859 1.16944C56.9942 0.950317 56.8672 0.747733 56.7099 0.569773C56.5542 0.398743 56.3659 0.260524 56.156 0.163218C55.942 0.0645583 55.7106 0.00928652 55.4752 0.000596372H46.4105C46.37 -0.00208116 46.3294 0.00428004 46.2916 0.0192205C46.2538 0.034161 46.2198 0.0573079 46.192 0.0869893C46.1635 0.118354 46.142 0.155405 46.1289 0.1957C46.1157 0.235996 46.1113 0.278619 46.1158 0.320758V11.3841C46.1158 11.5976 46.2073 11.6941 46.4004 11.6941H48.4734C48.6665 11.6941 48.758 11.5976 48.758 11.3841V2.77025H50.4449V11.4095C50.4429 11.4483 50.4485 11.487 50.4614 11.5236C50.4743 11.5601 50.4944 11.5937 50.5203 11.6225C50.5463 11.6513 50.5777 11.6747 50.6127 11.6914C50.6477 11.708 50.6856 11.7176 50.7244 11.7195H52.6298C52.6664 11.7206 52.7027 11.7133 52.7362 11.6984C52.7696 11.6834 52.7992 11.6611 52.8228 11.6331C52.8726 11.5693 52.8995 11.4905 52.8991 11.4095V2.77025H54.5809V11.4095C54.5802 11.4898 54.6051 11.5681 54.652 11.6331C54.6823 11.6594 54.7183 11.6782 54.7571 11.6879C54.796 11.6976 54.8366 11.698 54.8756 11.689H56.9639C57.0031 11.6878 57.0416 11.6787 57.0772 11.6623C57.1128 11.6459 57.1448 11.6227 57.1713 11.5938C57.1978 11.5649 57.2182 11.5311 57.2315 11.4942C57.2447 11.4573 57.2505 11.4182 57.2485 11.3791V1.9114C57.2436 1.65579 57.1884 1.40364 57.0859 1.16944V1.16944Z" fill="white"/>
<path fill-rule="evenodd" clip-rule="evenodd" d="M66.5621 8.94482C66.5374 8.91544 66.5061 8.8923 66.4708 8.87729C66.4355 8.86228 66.3971 8.85582 66.3588 8.85842H61.9891C61.9499 8.86004 61.9107 8.85367 61.8741 8.83969C61.8374 8.82571 61.8039 8.80442 61.7757 8.77711C61.7462 8.749 61.7228 8.71506 61.7071 8.67744C61.6913 8.63983 61.6835 8.59936 61.6842 8.55859V0.330935C61.6842 0.122575 61.5826 0.0107727 61.3794 0.0107727H59.1945C58.9913 0.0107727 58.8896 0.122575 58.8896 0.330935V11.3841C58.8896 11.5976 58.9913 11.7043 59.1945 11.7043H66.3487C66.3874 11.7067 66.4262 11.6997 66.4616 11.6837C66.497 11.6678 66.528 11.6435 66.5519 11.6128C66.6084 11.5502 66.6393 11.4685 66.6383 11.3841V9.17858C66.641 9.09414 66.6141 9.01141 66.5621 8.94482V8.94482Z" fill="white"/>
<path fill-rule="evenodd" clip-rule="evenodd" d="M77.5474 0.102223C77.5212 0.0709754 77.4885 0.0457282 77.4517 0.028192C77.4149 0.0106559 77.3747 0.00124061 77.334 0.000584139H75.1034C75.0642 0.000366559 75.0254 0.00839838 74.9895 0.0241579C74.9536 0.0399174 74.9214 0.063052 74.895 0.092059C74.8639 0.121114 74.8396 0.156669 74.8238 0.196196C74.808 0.235722 74.8011 0.278248 74.8036 0.320746V4.06613C74.8092 4.14488 74.7835 4.22266 74.7322 4.28261C74.6808 4.34255 74.6079 4.3798 74.5292 4.3863H71.384C71.3481 4.39052 71.3117 4.38732 71.2771 4.37689C71.2424 4.36647 71.2103 4.34905 71.1827 4.3257C71.1551 4.30236 71.1325 4.27359 71.1165 4.24118C71.1004 4.20877 71.0912 4.17341 71.0893 4.13728V0.33091C71.0893 0.122551 70.9877 0.010748 70.7845 0.010748H68.564C68.3608 0.010748 68.2592 0.122551 68.2592 0.33091V11.4146C68.2592 11.623 68.3608 11.7348 68.564 11.7348H70.7845C70.9877 11.7348 71.0893 11.623 71.0893 11.4146V7.47611C71.1051 7.42154 71.1329 7.37119 71.1706 7.32874C71.2288 7.27545 71.3051 7.24638 71.384 7.24743H74.5089C74.5482 7.24451 74.5877 7.25028 74.6246 7.26434C74.6615 7.27839 74.6948 7.30037 74.7223 7.32874C74.775 7.38927 74.8039 7.46696 74.8036 7.54726V11.4146C74.8037 11.5012 74.8363 11.5847 74.895 11.6484C74.9224 11.6771 74.9556 11.6997 74.9924 11.7146C75.0292 11.7295 75.0688 11.7364 75.1085 11.7348H77.334C77.3736 11.7364 77.4132 11.7295 77.45 11.7146C77.4868 11.6997 77.52 11.6771 77.5474 11.6484C77.5776 11.6176 77.6012 11.581 77.617 11.5408C77.6327 11.5007 77.6401 11.4577 77.6388 11.4146V0.33091C77.6379 0.245937 77.6053 0.164366 77.5474 0.102223V0.102223Z" fill="white"/>
<path d="M50.3026 37.2308H46.1158V17.1267H57.6346V20.618H50.3026V25.8016H57.1215V29.2827H50.3026V37.2308Z" fill="white"/>
<path d="M68.1982 37.5053C65.722 37.5053 63.7878 36.8277 62.3956 35.4725C61.0034 34.1173 60.3056 32.1828 60.3022 29.6689C60.3022 27.0941 60.9475 25.102 62.2381 23.6926C63.5287 22.2832 65.3087 21.5751 67.5783 21.5683C69.753 21.5683 71.4467 22.1866 72.6594 23.4232C73.872 24.6598 74.4767 26.3708 74.4733 28.556V30.5888H64.555C64.5398 31.6209 64.9176 32.6201 65.6119 33.3838C65.9817 33.7335 66.4189 34.0039 66.8968 34.1787C67.3747 34.3535 67.8832 34.4288 68.3913 34.4002C69.2751 34.4047 70.1565 34.3075 71.0182 34.1105C71.9084 33.8951 72.7735 33.5868 73.5994 33.1907V36.4381C72.8538 36.8071 72.0653 37.0819 71.2519 37.2563C70.2452 37.4435 69.2219 37.527 68.1982 37.5053ZM67.6037 24.5514C67.2139 24.5324 66.8247 24.5995 66.4638 24.748C66.1029 24.8964 65.7791 25.1225 65.5154 25.4103C64.9664 26.0902 64.6621 26.9351 64.6516 27.8089H70.5355C70.5742 26.9358 70.2841 26.0799 69.7225 25.4103C69.4514 25.1237 69.122 24.8987 68.7564 24.7506C68.3909 24.6024 67.9978 24.5345 67.6037 24.5514V24.5514Z" fill="white"/>
<path d="M82.0695 37.2308H77.8776V15.8308H82.0695V37.2308Z" fill="white"/>
<path d="M90.6667 37.2308H86.4697V15.8308H90.6667V37.2308Z" fill="white"/>
<path d="M109.035 29.5165C109.035 32.0202 108.376 33.9784 107.058 35.3912C105.741 36.804 103.903 37.5087 101.545 37.5053C100.18 37.5345 98.8322 37.2013 97.638 36.5397C96.5049 35.8949 95.5915 34.9248 95.0161 33.7548C94.388 32.432 94.0783 30.9805 94.1117 29.5165C94.1117 27.006 94.7671 25.0528 96.0781 23.657C97.389 22.2612 99.2368 21.5649 101.622 21.5683C102.984 21.5406 104.33 21.8719 105.524 22.5288C106.648 23.1689 107.555 24.132 108.125 25.2934C108.756 26.6102 109.067 28.0569 109.035 29.5165V29.5165ZM98.4103 29.5165C98.4103 31.041 98.6593 32.1913 99.1572 32.9671C99.4227 33.3617 99.7888 33.6781 100.218 33.8836C100.646 34.0891 101.122 34.1762 101.596 34.1359C102.065 34.1764 102.537 34.0902 102.961 33.8864C103.386 33.6826 103.748 33.3687 104.01 32.9773C104.501 32.198 104.746 31.0444 104.746 29.5165C104.746 27.9885 104.499 26.8468 104.005 26.0912C103.708 25.7358 103.337 25.45 102.918 25.2538C102.498 25.0576 102.041 24.9559 101.578 24.9559C101.115 24.9559 100.658 25.0576 100.239 25.2538C99.8198 25.45 99.4487 25.7358 99.1521 26.0912C98.6542 26.8434 98.4103 27.9868 98.4103 29.5165Z" fill="white"/>
<path d="M125.142 37.2308L123.978 31.8542L122.383 25.0596H122.286L119.481 37.2563H114.969L110.579 21.8529H114.756L116.529 28.6576C116.814 29.8773 117.104 31.5594 117.398 33.704H117.48C117.574 32.5909 117.736 31.4844 117.962 30.3906L118.181 29.2217L120.081 21.8529H124.7L126.519 29.2268C126.559 29.4301 126.615 29.735 126.692 30.1212C126.768 30.5074 126.849 30.9343 126.92 31.3815C126.991 31.8287 127.057 32.2607 127.118 32.6876C127.171 33.0242 127.205 33.3635 127.22 33.704H127.306C127.388 33.0484 127.535 32.1387 127.743 30.9902C127.952 29.8417 128.109 29.0642 128.201 28.6576L130.02 21.8529H134.14L129.715 37.2258L125.142 37.2308Z" fill="white"/>
<path d="M147.351 32.6673C147.392 33.3561 147.264 34.0446 146.978 34.6725C146.692 35.3005 146.256 35.8491 145.71 36.2704C144.612 37.0936 142.975 37.5053 140.797 37.5053C139.838 37.5203 138.88 37.4455 137.936 37.2817C137.168 37.1329 136.418 36.9011 135.7 36.5905V33.1501C136.547 33.5322 137.429 33.8334 138.332 34.0496C139.174 34.2789 140.041 34.4035 140.913 34.4205C142.434 34.4205 143.195 33.9801 143.195 33.0992C143.201 32.9517 143.177 32.8044 143.125 32.6664C143.073 32.5283 142.993 32.4024 142.89 32.2963C142.58 32.0117 142.229 31.7753 141.848 31.595C141.35 31.3307 140.69 31.0258 139.867 30.6802C138.947 30.3254 138.072 29.8632 137.26 29.303C136.745 28.9264 136.329 28.4291 136.051 27.8547C135.779 27.2126 135.65 26.5188 135.675 25.8219C135.648 25.2022 135.78 24.5859 136.057 24.0311C136.335 23.4764 136.749 23.0013 137.26 22.6508C138.324 21.9054 139.824 21.5327 141.762 21.5327C143.631 21.5353 145.476 21.9482 147.168 22.7422L145.903 25.7914C145.198 25.4854 144.477 25.2157 143.744 24.9834C143.087 24.7727 142.401 24.6648 141.711 24.6632C140.471 24.6632 139.857 24.9986 139.857 25.6796C139.865 25.8793 139.924 26.0736 140.028 26.2443C140.132 26.415 140.277 26.5564 140.451 26.6553C141.287 27.1404 142.164 27.5503 143.073 27.8801C144.004 28.2255 144.889 28.6828 145.71 29.242C146.234 29.6217 146.659 30.122 146.95 30.7006C147.23 31.3175 147.367 31.9898 147.351 32.6673V32.6673Z" fill="white"/>
<path d="M164.794 37.2308H160.603V28.2511C160.603 26.0286 159.778 24.919 158.128 24.9224C157.637 24.8828 157.144 24.9727 156.698 25.1831C156.252 25.3936 155.869 25.7172 155.588 26.1217C155.066 26.9179 154.805 28.2104 154.805 29.9992V37.2308H150.613V15.8308H154.805V20.1911C154.805 20.5316 154.775 21.3295 154.709 22.5847L154.612 23.8247H154.831C155.765 22.3204 157.251 21.5683 159.287 21.5683C161.095 21.5683 162.462 22.0765 163.397 23.0268C164.332 23.9772 164.8 25.3899 164.8 27.2042L164.794 37.2308Z" fill="white"/>
<path d="M168.936 17.8839C168.936 16.5288 169.696 15.8512 171.217 15.8512C172.738 15.8512 173.5 16.5288 173.503 17.8839C173.52 18.1641 173.477 18.4446 173.378 18.7073C173.28 18.9699 173.126 19.2088 172.929 19.4085C172.453 19.7969 171.845 19.9879 171.232 19.9421C169.705 19.9421 168.939 19.2561 168.936 17.8839ZM173.31 37.2309H169.113V21.8529H173.31V37.2309Z" fill="white"/>
<path d="M186.15 37.5053C185.336 37.5421 184.526 37.3826 183.786 37.0403C183.047 36.698 182.401 36.183 181.903 35.5386H181.684C181.831 36.8243 181.903 37.5714 181.903 37.7696V44H177.711V21.8529H181.12L181.709 23.845H181.903C182.36 23.1109 183.006 22.5124 183.772 22.1112C184.538 21.7101 185.398 21.5209 186.262 21.5633C187.095 21.5296 187.922 21.705 188.669 22.0734C189.417 22.4417 190.06 22.9914 190.54 23.6723C191.557 25.0749 192.065 27.023 192.065 29.5165C192.097 30.9757 191.852 32.4277 191.343 33.7955C190.941 34.8976 190.225 35.8583 189.285 36.5601C188.367 37.1998 187.269 37.5309 186.15 37.5053V37.5053ZM184.916 24.9021C184.488 24.8661 184.058 24.9342 183.663 25.1006C183.267 25.267 182.918 25.5267 182.644 25.8575C182.167 26.4978 181.923 27.5498 181.903 29.0134V29.4758C181.903 31.1224 182.148 32.3082 182.639 33.0332C182.901 33.3951 183.25 33.6841 183.655 33.8727C184.06 34.0612 184.506 34.1431 184.951 34.1106C186.828 34.1106 187.766 32.5606 187.766 29.4606C187.766 27.936 187.537 26.8129 187.075 26.0557C186.854 25.6856 186.536 25.3828 186.155 25.1796C185.775 24.9764 185.346 24.8805 184.916 24.9021V24.9021Z" fill="white"/>
<path d="M37.5491 19.9523H19.9483V37.5561H37.5491V19.9523Z" fill="#F8B92A"/>
<path d="M17.6008 19.9523H0V37.5561H17.6008V19.9523Z" fill="#FFCD69"/>
<path d="M37.5491 0.000579834H19.9483V17.6044H37.5491V0.000579834Z" fill="#E2A120"/>
</svg>
